<svg xmlns="http://www.w3.org/2000/svg" width="119.816" height="88.766" viewBox="0 0 119.816 88.766"><defs><style>.a,.b{fill:#00c897;}.b{stroke:#fff;stroke-width:1.5px;}.c,.d{stroke:none;}.d{fill:#fff;}.e{fill:none;}</style></defs><g transform="translate(-37 -40)"><g class="a" transform="translate(37 99.38) rotate(-30)"><path class="c" d="M 59.38040924072266 33.18160247802734 L 59.38031768798828 33.18160247802734 C 51.39399337768555 33.18160247802734 43.64776229858398 32.73484802246094 36.3568115234375 31.85375785827637 C 29.32496452331543 31.00398826599121 23.01362609863281 29.78857231140137 17.5981330871582 28.24127960205078 C 6.890902519226074 25.18207931518555 0.7499946355819702 21.07232666015625 0.7499946355819702 16.9658031463623 C 0.7499946355819702 12.85927963256836 6.890902519226074 8.749526023864746 17.5981330871582 5.690310955047607 C 23.01362609863281 4.143033981323242 29.32496452331543 2.927618503570557 36.3568115234375 2.077849388122559 C 43.64776229858398 1.196756958961487 51.39399337768555 0.7500031590461731 59.38031768798828 0.7500031590461731 C 67.36665344238281 0.7500031590461731 75.11288452148438 1.196756958961487 82.40383911132813 2.077849388122559 C 89.43568420410156 2.927618503570557 95.74700927734375 4.143033981323242 101.1625213623047 5.69032621383667 C 111.8697357177734 8.749526023864746 118.0106430053711 12.85929584503174 118.0106430053711 16.96581840515137 C 118.0106430053711 21.07205009460449 111.8693771362305 25.18171119689941 101.1615295410156 28.24107933044434 C 95.74584197998047 29.78840255737305 89.43448638916016 31.00386428833008 82.40276336669922 31.85367965698242 C 75.11188507080078 32.73483276367188 67.36605834960938 33.18160247802734 59.38040924072266 33.18160247802734 Z"/><path class="d" d="M 59.38031768798828 1.500003814697266 C 51.4239501953125 1.500003814697266 43.70800018310547 1.944936752319336 36.44678497314453 2.822420120239258 C 29.45407104492188 3.667469024658203 23.18178558349609 4.875003814697266 17.80418395996094 6.411453247070313 C 7.595016479492188 9.328353881835938 1.5 13.27390289306641 1.5 16.9658031463623 C 1.5 20.6577033996582 7.595016479492188 24.60325241088867 17.80418395996094 27.5201530456543 C 23.18178558349609 29.05660247802734 29.45407104492188 30.26413726806641 36.44678497314453 31.10918617248535 C 43.70800018310547 31.98666954040527 51.4239501953125 32.43160247802734 59.38031768798828 32.43160247802734 C 67.33668518066406 32.43160247802734 75.05265045166016 31.98666954040527 82.31385040283203 31.10918617248535 C 89.30657958984375 30.26413726806641 95.57886505126953 29.05661964416504 100.9564666748047 27.5201530456543 C 111.1656188964844 24.60325241088867 117.2606353759766 20.65771865844727 117.2606353759766 16.9658203125 C 117.2606353759766 13.2739200592041 111.1656188964844 9.328369140625 100.9564666748047 6.411453247070313 C 95.57886505126953 4.875003814697266 89.30657958984375 3.667469024658203 82.31385040283203 2.822420120239258 C 75.05265045166016 1.944936752319336 67.33668518066406 1.500003814697266 59.38031768798828 1.500003814697266 M 59.38031768798828 3.814697265625e-06 C 92.1751708984375 3.814697265625e-06 118.7606353759766 7.595853805541992 118.7606353759766 16.9658203125 C 118.7606353759766 26.33576965332031 92.1751708984375 33.93160247802734 59.38031768798828 33.93160247802734 C 26.58548736572266 33.93160247802734 0 26.33575248718262 0 16.9658031463623 C 0 7.595836639404297 26.58548736572266 3.814697265625e-06 59.38031768798828 3.814697265625e-06 Z"/></g><g class="b" transform="translate(61.071 48.753)"><ellipse class="c" cx="33.932" cy="33.932" rx="33.932" ry="33.932"/><ellipse class="e" cx="33.932" cy="33.932" rx="33.182" ry="33.182"/></g></g></svg>